<svg width="32" height="26" viewBox="0 0 32 26" fill="none" xmlns="http://www.w3.org/2000/svg">
<g clip-path="url(#clip0_1_29)">
<path d="M9.01984 20.4141H23.3942C23.7509 20.4141 24.065 20.1778 24.1608 19.8287L27.3551 8.54946C27.4244 8.30777 27.3764 8.04458 27.2274 7.84048C27.0783 7.63638 26.8387 7.51822 26.5885 7.51822H7.07132L6.50166 4.92401C6.41648 4.56415 6.09173 4.30096 5.71906 4.30096H0.927604C0.485726 4.30096 0.129028 4.66082 0.129028 5.10662C0.129028 5.55242 0.485726 5.91228 0.927604 5.91228H5.0802C5.18135 6.37419 7.81665 18.314 7.96572 19.0015C8.18932 20.065 8.67912 20.4141 9.01984 20.4141ZM25.4226 9.19399L22.7181 18.7437H9.63741L7.53449 9.19399H25.4226Z" fill="#575757"/>
<path d="M21.7224 25.6885C22.8955 25.6885 23.8466 24.729 23.8466 23.5454C23.8466 22.3618 22.8955 21.4024 21.7224 21.4024C20.5492 21.4024 19.5982 22.3618 19.5982 23.5454C19.5982 24.729 20.5492 25.6885 21.7224 25.6885Z" fill="#575757"/>
<path d="M10.7181 25.6885C11.8913 25.6885 12.8424 24.729 12.8424 23.5454C12.8424 22.3618 11.8913 21.4024 10.7181 21.4024C9.54497 21.4024 8.59393 22.3618 8.59393 23.5454C8.59393 24.729 9.54497 25.6885 10.7181 25.6885Z" fill="#575757"/>
</g>
<ellipse cx="25.2903" cy="6.70968" rx="6.70968" ry="6.70968" fill="#CC3872"/>
<path d="M27.6628 9.752C28.1428 9.752 28.3828 9.956 28.3828 10.364C28.3828 10.788 28.1428 11 27.6628 11H23.1028C22.8948 11 22.7308 10.94 22.6108 10.82C22.4908 10.692 22.4308 10.536 22.4308 10.352C22.4308 10.112 22.5228 9.896 22.7068 9.704L25.4428 6.764C25.7788 6.396 26.0228 6.06 26.1748 5.756C26.3348 5.444 26.4148 5.136 26.4148 4.832C26.4148 4.456 26.3068 4.168 26.0908 3.968C25.8748 3.768 25.5668 3.668 25.1668 3.668C24.8388 3.668 24.5188 3.732 24.2068 3.86C23.9028 3.98 23.5948 4.148 23.2828 4.364C23.2028 4.42 23.1228 4.468 23.0428 4.508C22.9628 4.54 22.8828 4.556 22.8028 4.556C22.6668 4.556 22.5468 4.492 22.4428 4.364C22.3468 4.236 22.2988 4.084 22.2988 3.908C22.2988 3.788 22.3188 3.684 22.3588 3.596C22.4068 3.508 22.4788 3.424 22.5748 3.344C22.9268 3.064 23.3388 2.844 23.8108 2.684C24.2828 2.516 24.7548 2.432 25.2268 2.432C26.0508 2.432 26.7068 2.64 27.1948 3.056C27.6908 3.472 27.9388 4.032 27.9388 4.736C27.9388 5.224 27.8348 5.684 27.6268 6.116C27.4188 6.54 27.0668 7.016 26.5708 7.544L24.4948 9.752H27.6628Z" fill="white"/>
<defs>
<clipPath id="clip0_1_29">
<rect width="27.2581" height="21.8065" fill="white" transform="translate(0.129028 4.19354)"/>
</clipPath>
</defs>
</svg>
